<mxfile host="app.diagrams.net" modified="2022-12-19T11:08:09.916Z" agent="5.0 (Windows NT 10.0; Win64; x64) AppleWebKit/537.36 (KHTML, like Gecko) Chrome/108.0.0.0 Safari/537.36" etag="UsNCj0UvUzrs2ivxjpCQ" version="20.7.4" type="github">
  <diagram id="c0r9f48P2s6mSZn0WuiE" name="Pagina-1">
    <mxGraphModel dx="724" dy="373" grid="1" gridSize="10" guides="1" tooltips="1" connect="1" arrows="1" fold="1" page="1" pageScale="1" pageWidth="1100" pageHeight="850" math="0" shadow="0">
      <root>
        <mxCell id="0" />
        <mxCell id="1" parent="0" />
        <mxCell id="jbQopthgaankX2Maz5ks-2" value="" style="ellipse;html=1;shape=startState;fillColor=#000000;strokeColor=#030303;" parent="1" vertex="1">
          <mxGeometry x="292" y="60" width="30" height="30" as="geometry" />
        </mxCell>
        <mxCell id="jbQopthgaankX2Maz5ks-3" value="" style="edgeStyle=orthogonalEdgeStyle;html=1;verticalAlign=bottom;endArrow=open;endSize=8;strokeColor=#000000;rounded=0;entryX=0.25;entryY=0;entryDx=0;entryDy=0;" parent="1" source="jbQopthgaankX2Maz5ks-2" target="jbQopthgaankX2Maz5ks-5" edge="1">
          <mxGeometry relative="1" as="geometry">
            <mxPoint x="300" y="95" as="targetPoint" />
          </mxGeometry>
        </mxCell>
        <mxCell id="7pmZxh2hFJZZ1LhI5Wdr-2" value="onClickCreaUtenzaButton()" style="edgeLabel;html=1;align=center;verticalAlign=middle;resizable=0;points=[];" vertex="1" connectable="0" parent="jbQopthgaankX2Maz5ks-3">
          <mxGeometry x="-0.2542" y="-1" relative="1" as="geometry">
            <mxPoint x="76" y="-3" as="offset" />
          </mxGeometry>
        </mxCell>
        <mxCell id="jbQopthgaankX2Maz5ks-5" value="&lt;b&gt;Frame Crea Utente&lt;/b&gt;" style="rounded=1;whiteSpace=wrap;html=1;align=center;verticalAlign=top;" parent="1" vertex="1">
          <mxGeometry x="150" y="150" width="630" height="445" as="geometry" />
        </mxCell>
        <mxCell id="jbQopthgaankX2Maz5ks-8" value="&lt;b&gt;Compilazione campi&lt;/b&gt;&lt;br&gt;&lt;font style=&quot;font-size: 8px;&quot;&gt;exit / enableCreaUtenteButton()&lt;/font&gt;" style="rounded=1;whiteSpace=wrap;html=1;align=left;verticalAlign=top;strokeWidth=1;perimeterSpacing=0;spacing=2;spacingRight=0;" parent="1" vertex="1">
          <mxGeometry x="300.48" y="237.5" width="120" height="60" as="geometry" />
        </mxCell>
        <mxCell id="jbQopthgaankX2Maz5ks-9" value="" style="ellipse;html=1;shape=startState;fillColor=#000000;strokeColor=#030303;" parent="1" vertex="1">
          <mxGeometry x="345.48" y="177.5" width="30" height="30" as="geometry" />
        </mxCell>
        <mxCell id="jbQopthgaankX2Maz5ks-10" value="" style="edgeStyle=orthogonalEdgeStyle;html=1;verticalAlign=bottom;endArrow=open;endSize=8;strokeColor=#000000;rounded=0;entryX=0.5;entryY=0;entryDx=0;entryDy=0;exitX=0.5;exitY=1;exitDx=0;exitDy=0;" parent="1" source="jbQopthgaankX2Maz5ks-9" target="jbQopthgaankX2Maz5ks-8" edge="1">
          <mxGeometry relative="1" as="geometry">
            <mxPoint x="220.48000000000002" y="167.5" as="targetPoint" />
            <mxPoint x="180.48000000000002" y="167.5" as="sourcePoint" />
          </mxGeometry>
        </mxCell>
        <mxCell id="jbQopthgaankX2Maz5ks-11" value="" style="endArrow=open;endFill=1;endSize=12;html=1;rounded=1;strokeColor=#000000;exitX=0.25;exitY=1;exitDx=0;exitDy=0;entryX=0.013;entryY=0.878;entryDx=0;entryDy=0;entryPerimeter=0;" parent="1" source="jbQopthgaankX2Maz5ks-8" target="jbQopthgaankX2Maz5ks-8" edge="1">
          <mxGeometry width="160" relative="1" as="geometry">
            <mxPoint x="310.48" y="317" as="sourcePoint" />
            <mxPoint x="300.48" y="297.5" as="targetPoint" />
            <Array as="points">
              <mxPoint x="330.48" y="317.5" />
              <mxPoint x="280.48" y="317.5" />
              <mxPoint x="280.48" y="297.5" />
            </Array>
          </mxGeometry>
        </mxCell>
        <mxCell id="jbQopthgaankX2Maz5ks-12" value="onClickCreaUtenteButton() &lt;br&gt;[!verificaEmail(email)] &lt;br&gt;/ emailEsistenteLabel.setVisible(true)" style="edgeLabel;html=1;align=right;verticalAlign=middle;resizable=0;points=[];fontSize=10;" parent="jbQopthgaankX2Maz5ks-11" vertex="1" connectable="0">
          <mxGeometry x="-0.4293" y="-1" relative="1" as="geometry">
            <mxPoint x="16" y="21" as="offset" />
          </mxGeometry>
        </mxCell>
        <mxCell id="jbQopthgaankX2Maz5ks-13" value="" style="endArrow=open;endFill=1;endSize=12;html=1;rounded=1;strokeColor=#000000;exitX=0.75;exitY=1;exitDx=0;exitDy=0;" parent="1" source="jbQopthgaankX2Maz5ks-8" target="jbQopthgaankX2Maz5ks-8" edge="1">
          <mxGeometry width="160" relative="1" as="geometry">
            <mxPoint x="510.48" y="302.5" as="sourcePoint" />
            <mxPoint x="480.48" y="287.5" as="targetPoint" />
            <Array as="points">
              <mxPoint x="390.48" y="317.5" />
              <mxPoint x="440.48" y="317.5" />
              <mxPoint x="440.48" y="297.5" />
            </Array>
          </mxGeometry>
        </mxCell>
        <mxCell id="jbQopthgaankX2Maz5ks-14" value="onClickCreaUtenteButton() &lt;br&gt;[!verificaEmail(email)] &lt;br&gt;/ emailEsistenteLabel.setVisible(true)" style="edgeLabel;html=1;align=left;verticalAlign=middle;resizable=0;points=[];fontSize=10;" parent="jbQopthgaankX2Maz5ks-13" vertex="1" connectable="0">
          <mxGeometry x="-0.4293" y="-1" relative="1" as="geometry">
            <mxPoint x="-16" y="19" as="offset" />
          </mxGeometry>
        </mxCell>
        <mxCell id="jbQopthgaankX2Maz5ks-15" value="&lt;b&gt;Popup Creazione Utente&lt;/b&gt;" style="rounded=1;whiteSpace=wrap;html=1;align=center;verticalAlign=top;" parent="1" vertex="1">
          <mxGeometry x="300.48" y="427.5" width="120" height="60" as="geometry" />
        </mxCell>
        <mxCell id="jbQopthgaankX2Maz5ks-17" value="" style="endArrow=open;endFill=1;endSize=12;html=1;rounded=1;strokeColor=#000000;fontSize=10;exitX=0.375;exitY=1;exitDx=0;exitDy=0;exitPerimeter=0;entryX=0.381;entryY=0.011;entryDx=0;entryDy=0;entryPerimeter=0;" parent="1" source="jbQopthgaankX2Maz5ks-8" target="jbQopthgaankX2Maz5ks-15" edge="1">
          <mxGeometry width="160" relative="1" as="geometry">
            <mxPoint x="420.48" y="377.5" as="sourcePoint" />
            <mxPoint x="580.48" y="377.5" as="targetPoint" />
          </mxGeometry>
        </mxCell>
        <mxCell id="jbQopthgaankX2Maz5ks-19" value="onClickCreaUtenteButton() &lt;br style=&quot;font-size: 10px;&quot;&gt;[verificaEmail(email)]" style="edgeLabel;html=1;align=center;verticalAlign=middle;resizable=0;points=[];fontSize=10;" parent="jbQopthgaankX2Maz5ks-17" vertex="1" connectable="0">
          <mxGeometry x="0.4472" y="1" relative="1" as="geometry">
            <mxPoint x="-67" y="16" as="offset" />
          </mxGeometry>
        </mxCell>
        <mxCell id="jbQopthgaankX2Maz5ks-20" value="" style="endArrow=open;endFill=1;endSize=12;html=1;rounded=1;strokeColor=#000000;fontSize=10;entryX=0.631;entryY=1;entryDx=0;entryDy=0;entryPerimeter=0;" parent="1" target="jbQopthgaankX2Maz5ks-8" edge="1">
          <mxGeometry width="160" relative="1" as="geometry">
            <mxPoint x="376.48" y="427.5" as="sourcePoint" />
            <mxPoint x="541.2" y="578.16" as="targetPoint" />
          </mxGeometry>
        </mxCell>
        <mxCell id="jbQopthgaankX2Maz5ks-22" value="onClickAnnullaButton()" style="edgeLabel;html=1;align=center;verticalAlign=middle;resizable=0;points=[];fontSize=10;" parent="jbQopthgaankX2Maz5ks-20" vertex="1" connectable="0">
          <mxGeometry x="0.2628" relative="1" as="geometry">
            <mxPoint x="54" y="62" as="offset" />
          </mxGeometry>
        </mxCell>
        <mxCell id="jbQopthgaankX2Maz5ks-23" value="" style="ellipse;html=1;shape=endState;fillColor=#000000;strokeColor=#000000;fontSize=10;" parent="1" vertex="1">
          <mxGeometry x="345.48" y="537.5" width="30" height="30" as="geometry" />
        </mxCell>
        <mxCell id="jbQopthgaankX2Maz5ks-24" value="" style="endArrow=open;endFill=1;endSize=12;html=1;rounded=1;strokeColor=#000000;fontSize=10;exitX=0.5;exitY=1;exitDx=0;exitDy=0;entryX=0.5;entryY=0;entryDx=0;entryDy=0;" parent="1" source="jbQopthgaankX2Maz5ks-15" target="jbQopthgaankX2Maz5ks-23" edge="1">
          <mxGeometry width="160" relative="1" as="geometry">
            <mxPoint x="350.48" y="487.5" as="sourcePoint" />
            <mxPoint x="510.48" y="487.5" as="targetPoint" />
          </mxGeometry>
        </mxCell>
        <mxCell id="jbQopthgaankX2Maz5ks-25" value="onClickConfermaButton()" style="edgeLabel;html=1;align=center;verticalAlign=middle;resizable=0;points=[];fontSize=10;" parent="jbQopthgaankX2Maz5ks-24" vertex="1" connectable="0">
          <mxGeometry x="-0.432" y="-1" relative="1" as="geometry">
            <mxPoint x="61" y="6" as="offset" />
          </mxGeometry>
        </mxCell>
        <mxCell id="jbQopthgaankX2Maz5ks-27" value="&lt;b&gt;Popup Uscita Creazione Utente&lt;/b&gt;" style="rounded=1;whiteSpace=wrap;html=1;align=center;verticalAlign=top;" parent="1" vertex="1">
          <mxGeometry x="580.48" y="237.5" width="120" height="60" as="geometry" />
        </mxCell>
        <mxCell id="jbQopthgaankX2Maz5ks-28" value="" style="endArrow=open;endFill=1;endSize=12;html=1;rounded=1;strokeColor=#000000;fontSize=10;entryX=0;entryY=0.25;entryDx=0;entryDy=0;" parent="1" target="jbQopthgaankX2Maz5ks-27" edge="1">
          <mxGeometry width="160" relative="1" as="geometry">
            <mxPoint x="420.48" y="252.5" as="sourcePoint" />
            <mxPoint x="580.48" y="252.5" as="targetPoint" />
          </mxGeometry>
        </mxCell>
        <mxCell id="jbQopthgaankX2Maz5ks-31" value="onClickHomeButton()" style="edgeLabel;html=1;align=center;verticalAlign=middle;resizable=0;points=[];fontSize=10;labelBackgroundColor=none;" parent="jbQopthgaankX2Maz5ks-28" vertex="1" connectable="0">
          <mxGeometry x="-0.3095" y="1" relative="1" as="geometry">
            <mxPoint x="24" y="-7" as="offset" />
          </mxGeometry>
        </mxCell>
        <mxCell id="jbQopthgaankX2Maz5ks-29" value="" style="endArrow=open;endFill=1;endSize=12;html=1;rounded=1;strokeColor=#000000;fontSize=10;" parent="1" source="jbQopthgaankX2Maz5ks-8" target="jbQopthgaankX2Maz5ks-27" edge="1">
          <mxGeometry width="160" relative="1" as="geometry">
            <mxPoint x="420.48" y="267.08" as="sourcePoint" />
            <mxPoint x="580.48" y="267.08" as="targetPoint" />
          </mxGeometry>
        </mxCell>
        <mxCell id="jbQopthgaankX2Maz5ks-32" value="onClickMenuButton()" style="edgeLabel;html=1;align=center;verticalAlign=middle;resizable=0;points=[];fontSize=10;labelBackgroundColor=none;" parent="jbQopthgaankX2Maz5ks-29" vertex="1" connectable="0">
          <mxGeometry x="-0.2319" y="1" relative="1" as="geometry">
            <mxPoint x="19" y="-6" as="offset" />
          </mxGeometry>
        </mxCell>
        <mxCell id="jbQopthgaankX2Maz5ks-30" value="" style="endArrow=open;endFill=1;endSize=12;html=1;rounded=1;strokeColor=#000000;fontSize=10;exitX=1;exitY=0.75;exitDx=0;exitDy=0;entryX=0;entryY=0.75;entryDx=0;entryDy=0;" parent="1" source="jbQopthgaankX2Maz5ks-8" target="jbQopthgaankX2Maz5ks-27" edge="1">
          <mxGeometry width="160" relative="1" as="geometry">
            <mxPoint x="490.48" y="307.5" as="sourcePoint" />
            <mxPoint x="650.48" y="307.5" as="targetPoint" />
          </mxGeometry>
        </mxCell>
        <mxCell id="jbQopthgaankX2Maz5ks-33" value="onClickStatisticheButton()" style="edgeLabel;html=1;align=center;verticalAlign=middle;resizable=0;points=[];fontSize=10;labelBackgroundColor=none;" parent="jbQopthgaankX2Maz5ks-30" vertex="1" connectable="0">
          <mxGeometry x="0.3888" relative="1" as="geometry">
            <mxPoint x="-31" y="-7" as="offset" />
          </mxGeometry>
        </mxCell>
        <mxCell id="jbQopthgaankX2Maz5ks-34" value="" style="endArrow=open;endFill=1;endSize=12;html=1;rounded=1;strokeColor=#000000;fontSize=10;exitX=0.5;exitY=0;exitDx=0;exitDy=0;entryX=0.75;entryY=0;entryDx=0;entryDy=0;" parent="1" source="jbQopthgaankX2Maz5ks-27" target="jbQopthgaankX2Maz5ks-8" edge="1">
          <mxGeometry width="160" relative="1" as="geometry">
            <mxPoint x="535.48" y="197.5" as="sourcePoint" />
            <mxPoint x="695.48" y="197.5" as="targetPoint" />
            <Array as="points">
              <mxPoint x="640.48" y="217.5" />
              <mxPoint x="520.48" y="217.5" />
              <mxPoint x="390.48" y="217.5" />
            </Array>
          </mxGeometry>
        </mxCell>
        <mxCell id="jbQopthgaankX2Maz5ks-36" value="onClickAnnullaButton()" style="edgeLabel;html=1;align=center;verticalAlign=middle;resizable=0;points=[];fontSize=10;" parent="jbQopthgaankX2Maz5ks-34" vertex="1" connectable="0">
          <mxGeometry x="0.0221" y="-2" relative="1" as="geometry">
            <mxPoint x="-12" y="-5" as="offset" />
          </mxGeometry>
        </mxCell>
        <mxCell id="jbQopthgaankX2Maz5ks-37" value="" style="ellipse;html=1;shape=endState;fillColor=#000000;strokeColor=#000000;fontSize=10;" parent="1" vertex="1">
          <mxGeometry x="625.48" y="330" width="30" height="30" as="geometry" />
        </mxCell>
        <mxCell id="jbQopthgaankX2Maz5ks-38" value="" style="endArrow=open;endFill=1;endSize=12;html=1;rounded=1;strokeColor=#000000;fontSize=10;exitX=0.5;exitY=1;exitDx=0;exitDy=0;entryX=0.5;entryY=0;entryDx=0;entryDy=0;" parent="1" source="jbQopthgaankX2Maz5ks-27" target="jbQopthgaankX2Maz5ks-37" edge="1">
          <mxGeometry x="1" y="112" width="160" relative="1" as="geometry">
            <mxPoint x="700.48" y="117.5" as="sourcePoint" />
            <mxPoint x="700.48" y="167.5" as="targetPoint" />
            <mxPoint x="-62" y="100" as="offset" />
          </mxGeometry>
        </mxCell>
        <mxCell id="jbQopthgaankX2Maz5ks-39" value="onClickConfermaButton()" style="edgeLabel;html=1;align=center;verticalAlign=middle;resizable=0;points=[];fontSize=10;" parent="jbQopthgaankX2Maz5ks-38" vertex="1" connectable="0">
          <mxGeometry x="-0.432" y="-1" relative="1" as="geometry">
            <mxPoint x="61" y="1" as="offset" />
          </mxGeometry>
        </mxCell>
        <mxCell id="7pmZxh2hFJZZ1LhI5Wdr-3" value="&lt;b&gt;Frame Home Admin&lt;/b&gt;" style="rounded=1;whiteSpace=wrap;html=1;align=center;verticalAlign=top;" vertex="1" parent="1">
          <mxGeometry x="197" y="750" width="120" height="60" as="geometry" />
        </mxCell>
        <mxCell id="7pmZxh2hFJZZ1LhI5Wdr-4" value="" style="endArrow=open;endFill=1;endSize=12;html=1;rounded=0;exitX=0.089;exitY=0.997;exitDx=0;exitDy=0;exitPerimeter=0;entryX=0.075;entryY=-0.01;entryDx=0;entryDy=0;entryPerimeter=0;" edge="1" parent="1" source="jbQopthgaankX2Maz5ks-5" target="7pmZxh2hFJZZ1LhI5Wdr-3">
          <mxGeometry width="160" relative="1" as="geometry">
            <mxPoint x="250" y="620" as="sourcePoint" />
            <mxPoint x="410" y="620" as="targetPoint" />
          </mxGeometry>
        </mxCell>
        <mxCell id="7pmZxh2hFJZZ1LhI5Wdr-5" value="[utenteCreato]" style="edgeLabel;html=1;align=center;verticalAlign=middle;resizable=0;points=[];rotation=90;" vertex="1" connectable="0" parent="7pmZxh2hFJZZ1LhI5Wdr-4">
          <mxGeometry x="-0.3132" y="1" relative="1" as="geometry">
            <mxPoint x="13" y="12" as="offset" />
          </mxGeometry>
        </mxCell>
        <mxCell id="7pmZxh2hFJZZ1LhI5Wdr-6" value="" style="endArrow=open;endFill=1;endSize=12;html=1;rounded=0;exitX=0.142;exitY=1.001;exitDx=0;exitDy=0;exitPerimeter=0;entryX=0.348;entryY=-0.017;entryDx=0;entryDy=0;entryPerimeter=0;" edge="1" parent="1" source="jbQopthgaankX2Maz5ks-5" target="7pmZxh2hFJZZ1LhI5Wdr-3">
          <mxGeometry width="160" relative="1" as="geometry">
            <mxPoint x="292.07" y="594.26" as="sourcePoint" />
            <mxPoint x="292.00000000000006" y="679.9950000000001" as="targetPoint" />
          </mxGeometry>
        </mxCell>
        <mxCell id="7pmZxh2hFJZZ1LhI5Wdr-7" value="[homeButtonClicked]" style="edgeLabel;html=1;align=center;verticalAlign=middle;resizable=0;points=[];rotation=90;" vertex="1" connectable="0" parent="7pmZxh2hFJZZ1LhI5Wdr-6">
          <mxGeometry x="-0.3132" y="1" relative="1" as="geometry">
            <mxPoint x="14" y="12" as="offset" />
          </mxGeometry>
        </mxCell>
        <mxCell id="7pmZxh2hFJZZ1LhI5Wdr-8" value="" style="endArrow=open;endFill=1;endSize=12;html=1;rounded=0;exitX=0.75;exitY=0;exitDx=0;exitDy=0;entryX=0.218;entryY=1.001;entryDx=0;entryDy=0;entryPerimeter=0;" edge="1" parent="1" source="7pmZxh2hFJZZ1LhI5Wdr-3" target="jbQopthgaankX2Maz5ks-5">
          <mxGeometry width="160" relative="1" as="geometry">
            <mxPoint x="385" y="650" as="sourcePoint" />
            <mxPoint x="545" y="650" as="targetPoint" />
          </mxGeometry>
        </mxCell>
        <mxCell id="7pmZxh2hFJZZ1LhI5Wdr-9" value="onClickCreaUtenzaButton()" style="edgeLabel;html=1;align=center;verticalAlign=middle;resizable=0;points=[];rotation=90;labelBackgroundColor=none;" vertex="1" connectable="0" parent="7pmZxh2hFJZZ1LhI5Wdr-8">
          <mxGeometry x="0.4066" relative="1" as="geometry">
            <mxPoint x="13" y="39" as="offset" />
          </mxGeometry>
        </mxCell>
        <mxCell id="7pmZxh2hFJZZ1LhI5Wdr-10" value="&lt;b&gt;Frame Personalizza Menù&lt;/b&gt;" style="rounded=1;whiteSpace=wrap;html=1;align=center;verticalAlign=top;" vertex="1" parent="1">
          <mxGeometry x="360" y="750" width="120" height="60" as="geometry" />
        </mxCell>
        <mxCell id="7pmZxh2hFJZZ1LhI5Wdr-11" value="" style="endArrow=open;endFill=1;endSize=12;html=1;rounded=0;entryX=0.25;entryY=0;entryDx=0;entryDy=0;exitX=0.381;exitY=1.003;exitDx=0;exitDy=0;exitPerimeter=0;" edge="1" parent="1" source="jbQopthgaankX2Maz5ks-5" target="7pmZxh2hFJZZ1LhI5Wdr-10">
          <mxGeometry x="-0.166" y="30" width="160" relative="1" as="geometry">
            <mxPoint x="390" y="630" as="sourcePoint" />
            <mxPoint x="520" y="753.5350000000001" as="targetPoint" />
            <mxPoint as="offset" />
          </mxGeometry>
        </mxCell>
        <mxCell id="7pmZxh2hFJZZ1LhI5Wdr-12" value="[menuButtonClicked]" style="edgeLabel;html=1;align=center;verticalAlign=middle;resizable=0;points=[];rotation=90;" vertex="1" connectable="0" parent="7pmZxh2hFJZZ1LhI5Wdr-11">
          <mxGeometry x="-0.3132" y="1" relative="1" as="geometry">
            <mxPoint x="14" y="15" as="offset" />
          </mxGeometry>
        </mxCell>
        <mxCell id="7pmZxh2hFJZZ1LhI5Wdr-13" value="" style="endArrow=open;endFill=1;endSize=12;html=1;rounded=0;exitX=0.75;exitY=0;exitDx=0;exitDy=0;entryX=0.477;entryY=0.999;entryDx=0;entryDy=0;entryPerimeter=0;" edge="1" parent="1" source="7pmZxh2hFJZZ1LhI5Wdr-10" target="jbQopthgaankX2Maz5ks-5">
          <mxGeometry width="160" relative="1" as="geometry">
            <mxPoint x="450" y="749.56" as="sourcePoint" />
            <mxPoint x="450" y="620" as="targetPoint" />
          </mxGeometry>
        </mxCell>
        <mxCell id="7pmZxh2hFJZZ1LhI5Wdr-14" value="onClickCreaUtenzaButton()" style="edgeLabel;html=1;align=center;verticalAlign=middle;resizable=0;points=[];rotation=90;labelBackgroundColor=none;" vertex="1" connectable="0" parent="7pmZxh2hFJZZ1LhI5Wdr-13">
          <mxGeometry x="0.4066" relative="1" as="geometry">
            <mxPoint x="13" y="39" as="offset" />
          </mxGeometry>
        </mxCell>
        <mxCell id="7pmZxh2hFJZZ1LhI5Wdr-15" value="&lt;b&gt;Frame Statistiche&lt;/b&gt;" style="rounded=1;whiteSpace=wrap;html=1;align=center;verticalAlign=top;" vertex="1" parent="1">
          <mxGeometry x="520" y="750" width="120" height="60" as="geometry" />
        </mxCell>
        <mxCell id="7pmZxh2hFJZZ1LhI5Wdr-16" value="" style="endArrow=open;endFill=1;endSize=12;html=1;rounded=0;entryX=0.25;entryY=0;entryDx=0;entryDy=0;exitX=0.635;exitY=1.001;exitDx=0;exitDy=0;exitPerimeter=0;" edge="1" parent="1" source="jbQopthgaankX2Maz5ks-5" target="7pmZxh2hFJZZ1LhI5Wdr-15">
          <mxGeometry x="-0.166" y="30" width="160" relative="1" as="geometry">
            <mxPoint x="550" y="600" as="sourcePoint" />
            <mxPoint x="550" y="730" as="targetPoint" />
            <mxPoint as="offset" />
          </mxGeometry>
        </mxCell>
        <mxCell id="7pmZxh2hFJZZ1LhI5Wdr-17" value="[statisticheButtonClicked]" style="edgeLabel;html=1;align=center;verticalAlign=middle;resizable=0;points=[];rotation=90;" vertex="1" connectable="0" parent="7pmZxh2hFJZZ1LhI5Wdr-16">
          <mxGeometry x="-0.3132" y="1" relative="1" as="geometry">
            <mxPoint x="14" y="15" as="offset" />
          </mxGeometry>
        </mxCell>
        <mxCell id="7pmZxh2hFJZZ1LhI5Wdr-18" value="" style="endArrow=open;endFill=1;endSize=12;html=1;rounded=0;exitX=0.75;exitY=0;exitDx=0;exitDy=0;entryX=0.73;entryY=0.999;entryDx=0;entryDy=0;entryPerimeter=0;" edge="1" parent="1" source="7pmZxh2hFJZZ1LhI5Wdr-15" target="jbQopthgaankX2Maz5ks-5">
          <mxGeometry width="160" relative="1" as="geometry">
            <mxPoint x="620" y="735.44" as="sourcePoint" />
            <mxPoint x="610" y="610" as="targetPoint" />
          </mxGeometry>
        </mxCell>
        <mxCell id="7pmZxh2hFJZZ1LhI5Wdr-19" value="onClickCreaUtenzaButton()" style="edgeLabel;html=1;align=center;verticalAlign=middle;resizable=0;points=[];rotation=90;labelBackgroundColor=none;" vertex="1" connectable="0" parent="7pmZxh2hFJZZ1LhI5Wdr-18">
          <mxGeometry x="0.4066" relative="1" as="geometry">
            <mxPoint x="13" y="39" as="offset" />
          </mxGeometry>
        </mxCell>
      </root>
    </mxGraphModel>
  </diagram>
</mxfile>
